# xmcd CD database file
#
# Track frame offsets:
#	150
#	21397
#	48234
#	68060
#	88129
#	111014
#	131451
#	151813
#	171600
#	194712
#
# Disc length: 2868 seconds
#
# Revision: 2
# Processed by: cddbd v1.5.1PL0 Copyright (c) Steve Scherf et al.
# Submitted via: CDex 1.51
#
DISCID=8a0b320a
DTITLE=Various Artist - Sizzling Salsa Volume 2
DYEAR=2003
DGENRE=Latin
TTITLE0=El Baile Del Boogaloo - Sonora Carruseles
TTITLE1=El Preso - Fruko Y Sus Tesos
TTITLE2=Que Suene Mi Campana - Sonora Carruseles
TTITLE3=Fue Candela - Los Titanes
TTITLE4=Salsa Brava - Fruko Y Sus Tesos
TTITLE5=El Talisman - The Latin Brothers
TTITLE6=Pa'l Bailador - Joe Arroyo Y La Verdad
TTITLE7=La Tormenta - The Latin Brothers
TTITLE8=Que Me Entierren Con Rumba - Sonora Carruseles
TTITLE9=La Guerra De Los Callados - Joe Arroyo Y La Verdad
EXTD=YEAR: 2003
EXTT0=
EXTT1=
EXTT2=
EXTT3=
EXTT4=
EXTT5=
EXTT6=
EXTT7=
EXTT8=
EXTT9=
PLAYORDER=
